<?xml version="1.0" encoding="iso-8859-1"?>
<!-- Generator: Adobe Illustrator 19.0.0, SVG Export Plug-In . SVG Version: 6.00 Build 0)  -->
<svg version="1.1" id="Capa_1" xmlns="http://www.w3.org/2000/svg" xmlns:xlink="http://www.w3.org/1999/xlink" x="0px" y="0px"
	 viewBox="0 0 512 512" style="enable-background:new 0 0 512 512;" xml:space="preserve">
<g>
	<g>
		<path d="M467,0H45C20.187,0,0,20.187,0,45v422c0,24.813,20.187,45,45,45h422c24.813,0,45-20.187,45-45V45
			C512,20.187,491.813,0,467,0z M482,467c0,8.271-6.729,15-15,15H45c-8.271,0-15-6.729-15-15V45c0-8.271,6.729-15,15-15h422
			c8.271,0,15,6.729,15,15V467z"/>
	</g>
</g>
<g>
	<g>
		<path d="M330.045,370.733l-90-240C237.85,124.879,232.252,121,226,121s-11.85,3.879-14.045,9.733l-90,240
			c-2.909,7.757,1.021,16.403,8.778,19.312c7.757,2.908,16.402-1.021,19.312-8.778L191.395,271h69.21l41.35,110.267
			c2.91,7.759,11.556,11.687,19.312,8.778C329.023,387.136,332.954,378.49,330.045,370.733z M202.645,241L226,178.72L249.355,241
			H202.645z"/>
	</g>
</g>
<g>
	<g>
		<path d="M376,241c-8.284,0-15,6.716-15,15v120c0,8.284,6.716,15,15,15s15-6.716,15-15V256C391,247.716,384.284,241,376,241z"/>
	</g>
</g>
<g>
	<g>
		<circle cx="376" cy="196" r="15"/>
	</g>
</g>
<g>
</g>
<g>
</g>
<g>
</g>
<g>
</g>
<g>
</g>
<g>
</g>
<g>
</g>
<g>
</g>
<g>
</g>
<g>
</g>
<g>
</g>
<g>
</g>
<g>
</g>
<g>
</g>
<g>
</g>
</svg>
